# xmcd
#
# Track frame offsets:
#	150
#	13908
#	23455
#	33225
#	43587
#	59563
#	71624
#	84173
#	92821
#	110838
#	123505
#	136298
#	153089
#	165882
#	178285
#	190200
#	202073
#	216148
#
# Disc length: 3057 seconds
#
# Revision: 1
# Processed by: cddbd v1.5.1PL2 Copyright (c) Steve Scherf et al.
# Submitted via: audiograbber 1.83.01
#
DISCID=f50bef12
DTITLE=Various Artist - Country Roads
DYEAR=2003
DGENRE=Country
TTITLE0=Conway Twitty - Okie From Muskogee
TTITLE1=Elvis Presley - Just Call Me Lonesome
TTITLE2=Saskia and Serge - Jambalaya
TTITLE3=Connie Francis - Oh Lonesome Me
TTITLE4=Jimmy Buffett - If I Could Just Get It On A Paper
TTITLE5=Dickie Lee - Never Ending Song Of Love
TTITLE6=Sue Terry - The Home Are Tearing Down
TTITLE7=Skeeter Davis and Bobby Bare - A Dear John Letter
TTITLE8=Alabama - Food On A Table
TTITLE9=Saskia and Serge - So Sad (To Watch Good Love Go Bad)
TTITLE10=Dave and Sugar - Living At The End Of The Rainbow
TTITLE11=Lynn Anderson - Blue Bayou
TTITLE12=Johnny Tillson - It Keeps Right On A Hurtin'
TTITLE13=Bobby Bare - Five Hundred Miles Away From Home
TTITLE14=Marie Osmond - Paper Roses
TTITLE15=Kenny Rogers - Me And Bobby McGee
TTITLE16=Don Williams - Come Early Morning
TTITLE17=Charlie Rich - Behind Closed Doors
EXTD=
EXTT0=
EXTT1=
EXTT2=
EXTT3=
EXTT4=
EXTT5=
EXTT6=
EXTT7=
EXTT8=
EXTT9=
EXTT10=
EXTT11=
EXTT12=
EXTT13=
EXTT14=
EXTT15=
EXTT16=
EXTT17=
PLAYORDER=
